<svg width="1114" height="235" viewBox="0 0 1114 235" fill="none" xmlns="http://www.w3.org/2000/svg">
<path d="M44.7354 27.245H129.999C129.999 27.245 27.3928 153.937 8.46661 175.849C-8.3455 195.309 5.07146 222.218 5.07146 222.218L191.98 -3.585e-05H46.8383C46.8383 -3.585e-05 17.2487 -0.362339 7.51932 29.1339C6.87849 29.2617 6.82568 29.3526 7.43757 29.3839L7.43556 29.3901C7.43556 29.3901 10.442 31.3882 7.45422 29.3847L7.43757 29.3839C7.46466 29.3003 7.49191 29.217 7.51932 29.1339C10.3948 28.5605 25.1092 27.245 44.7354 27.245Z" fill="white"/>
<path d="M156.15 205.755H70.1869C70.1869 205.755 172.793 79.063 191.72 57.1505C208.532 37.6913 194.427 10.7823 194.427 10.7823L7.89426 233H154.036C154.036 233 184.796 231.364 194.438 201.61C194.438 201.61 180.702 205.755 156.15 205.755Z" fill="white"/>
<path fill-rule="evenodd" clip-rule="evenodd" d="M341.827 206.263C323.75 225.609 303.136 232.903 277.447 232.903C225.753 232.903 200.064 195.797 200.064 154.569C200.064 113.974 224.167 74.3314 274.593 74.3314C331.044 74.3314 347.536 114.291 347.536 154.251C347.536 161.229 346.267 165.986 346.267 165.986H240.024C242.562 185.014 254.613 197.7 277.13 197.7C293.939 197.7 304.722 194.846 315.822 183.429L341.827 206.263ZM274.593 106.046C253.662 106.046 243.196 120 240.024 138.711H310.43C307.893 117.78 297.11 106.046 274.593 106.046Z" fill="white"/>
<path fill-rule="evenodd" clip-rule="evenodd" d="M477.054 215.46C465.32 229.731 449.145 234.171 432.654 234.171C390.474 234.171 366.688 196.431 366.688 153.617C366.688 110.803 390.474 73.0628 432.654 73.0628C449.463 73.0628 466.271 78.4543 477.054 91.7743V12.1714H515.428V231H477.054V215.46ZM405.063 153.617C405.063 179.623 417.114 199.286 442.168 199.286C467.54 199.286 478.64 179.94 478.64 153.617C478.64 127.611 467.54 107.314 442.168 107.314C417.114 107.314 405.063 127.929 405.063 153.617Z" fill="white"/>
<path d="M635.023 231H603.943L540.832 76.2343H582.06L619.483 182.16L657.223 76.2343H698.135L635.023 231Z" fill="white"/>
<path fill-rule="evenodd" clip-rule="evenodd" d="M852.539 206.263C834.462 225.609 813.847 232.903 788.159 232.903C736.464 232.903 710.776 195.797 710.776 154.569C710.776 113.974 734.879 74.3314 785.304 74.3314C841.756 74.3314 858.247 114.291 858.247 154.251C858.247 161.229 856.979 165.986 856.979 165.986H750.736C753.273 185.014 765.324 197.7 787.842 197.7C804.65 197.7 815.433 194.846 826.533 183.429L852.539 206.263ZM785.304 106.046C764.373 106.046 753.907 120 750.736 138.711H821.142C818.604 117.78 807.822 106.046 785.304 106.046Z" fill="white"/>
<path d="M997.914 182.477C997.914 218.314 966.834 234.171 937.657 234.171C904.991 234.171 880.254 214.509 872.643 190.723L902.771 177.403C906.894 188.503 915.14 202.774 935.754 202.774C953.197 202.774 960.808 192.626 960.808 184.38C960.808 173.74 947.801 170.32 932.43 166.279C910.234 160.443 883.108 153.311 883.108 121.269C883.108 88.6028 911.334 74.0143 938.926 74.0143C967.468 74.0143 986.814 89.8714 996.963 107.949L970.005 122.537C964.614 113.023 956.051 103.826 939.243 103.826C926.874 103.826 919.263 108.9 919.263 116.194C919.263 125.379 931.308 128.832 945.971 133.035C968.777 139.572 997.914 147.925 997.914 182.477Z" fill="white"/>
<path d="M1113.81 229.414C1113.81 229.414 1101.44 234.171 1085.9 234.171C1055.45 234.171 1037.38 216.411 1037.38 188.186V110.486H1012.32V76.2343H1038.01V37.86L1073.53 10.9028V76.2343H1113.81V110.486H1073.53V187.869C1073.53 195.48 1078.6 200.554 1090.34 200.554C1102.71 200.554 1113.81 195.163 1113.81 195.163V229.414Z" fill="white"/>
</svg>
