<svg width="200" height="233" viewBox="0 0 200 233" fill="none" xmlns="http://www.w3.org/2000/svg">
<path d="M129.999 27.2453H44.7354C20.6959 27.2453 4.02559 29.2189 7.45422 29.3849C10.442 31.3885 7.43556 29.3903 7.43556 29.3903C17.0776 -0.364191 46.8383 0.00020829 46.8383 0.00020829H191.98L5.07146 222.218C5.07146 222.218 -8.3455 195.309 8.46661 175.85C27.3928 153.937 129.999 27.2453 129.999 27.2453Z" fill="#f7a400"/>
<path d="M70.1869 205.755H156.15C180.702 205.755 194.438 201.61 194.438 201.61C184.796 231.365 154.036 233 154.036 233H7.89426L194.427 10.7826C194.427 10.7826 208.532 37.6915 191.72 57.1507C172.793 79.0633 70.1869 205.755 70.1869 205.755Z" fill="#f7a400"/>
</svg>
